# xmcd CD database file
#
# Track frame offsets:
#	150
#	20202
#	40112
#	60700
#	78792
#	100772
#	123130
#	145380
#	167642
#	188407
#
# Disc length: 2792 seconds
#
# Revision: 1
# Processed by: cddbd v1.5.1PL0 Copyright (c) Steve Scherf et al.
# Submitted via: CDex 1.50
#
DISCID=780ae60a
DTITLE=Gerald Albright - Kickin' It Up
DYEAR=2004
DGENRE=Jazz
TTITLE0=4 On The Floor
TTITLE1=To The Max
TTITLE2=Why Georgia
TTITLE3=Walker's Theme
TTITLE4=Condition Of My Heart
TTITLE5=Throw Yo' Hands (In The Air)
TTITLE6=Father's Lullaby
TTITLE7=On The One
TTITLE8=Kickin' It Up
TTITLE9=If You Don't Know Me By Now
EXTD=YEAR: 2004
EXTT0=
EXTT1=
EXTT2=
EXTT3=
EXTT4=
EXTT5=
EXTT6=
EXTT7=
EXTT8=
EXTT9=
PLAYORDER=
